<?xml version="1.0" encoding="UTF-8"?>
<svg width="28px" height="23px" viewBox="0 0 28 23" version="1.1" xmlns="http://www.w3.org/2000/svg" xmlns:xlink="http://www.w3.org/1999/xlink">
    <!-- Generator: Sketch 57.1 (83088) - https://sketch.com -->
    <title>Fill 1</title>
    <desc>Created with Sketch.</desc>
    <g id="Page-1" stroke="none" stroke-width="1" fill="none" fill-rule="evenodd">
        <g id="Wohlgensinger---Landing-Page" transform="translate(-209.000000, -1215.000000)" fill="#FFFFFF">
            <g id="Group-8" transform="translate(187.000000, 1191.000000)">
                <path d="M31.1337445,24.3459193 C31.528477,23.8846936 32.1499139,23.8846936 32.5446463,24.3459193 C32.9260432,24.7915632 32.9260432,25.5332641 32.5446463,25.9778691 L25.3905651,34.337067 L48.9980552,34.337067 C49.5483692,34.337067 50,34.848155 50,35.4911702 C50,36.1341854 49.5483692,36.6618942 48.9980552,36.6618942 L25.3905651,36.6618942 L32.5446463,45.0055101 C32.9260432,45.4667359 32.9260432,46.2094756 32.5446463,46.6540807 C32.1499139,47.1153064 31.528477,47.1153064 31.1337445,46.6540807 L22.2860477,36.3159749 C21.9046508,35.8703311 21.9046508,35.1286301 22.2860477,34.6840251 L31.1337445,24.3459193 Z" id="Fill-1"></path>
            </g>
        </g>
    </g>
</svg>