<?xml version="1.0" encoding="UTF-8"?>
<svg width="28px" height="23px" viewBox="0 0 28 23" version="1.1" xmlns="http://www.w3.org/2000/svg" xmlns:xlink="http://www.w3.org/1999/xlink">
    <!-- Generator: Sketch 57.1 (83088) - https://sketch.com -->
    <title>Fill 1</title>
    <desc>Created with Sketch.</desc>
    <g id="Page-1" stroke="none" stroke-width="1" fill="none" fill-rule="evenodd">
        <g id="Wohlgensinger---Landing-Page" transform="translate(-276.000000, -1215.000000)" fill="#FFFFFF">
            <g id="Group-8" transform="translate(187.000000, 1191.000000)">
                <path d="M98.1337445,24.3459193 C98.528477,23.8846936 99.1499139,23.8846936 99.5446463,24.3459193 C99.9260432,24.7915632 99.9260432,25.5332641 99.5446463,25.9778691 L92.3905651,34.337067 L115.998055,34.337067 C116.548369,34.337067 117,34.848155 117,35.4911702 C117,36.1341854 116.548369,36.6618942 115.998055,36.6618942 L92.3905651,36.6618942 L99.5446463,45.0055101 C99.9260432,45.4667359 99.9260432,46.2094756 99.5446463,46.6540807 C99.1499139,47.1153064 98.528477,47.1153064 98.1337445,46.6540807 L89.2860477,36.3159749 C88.9046508,35.8703311 88.9046508,35.1286301 89.2860477,34.6840251 L98.1337445,24.3459193 Z" id="Fill-1" transform="translate(103.000000, 35.500000) scale(-1, 1) translate(-103.000000, -35.500000) "></path>
            </g>
        </g>
    </g>
</svg>