
<svg width="27px" height="26px" viewBox="0 0 27 26" version="1.1" xmlns="http://www.w3.org/2000/svg" >
    
    <defs>
        <filter x="-63.2%" y="-66.7%" width="226.3%" height="233.3%" filterUnits="objectBoundingBox" id="filter-1">
            <feOffset dx="0" dy="2" in="SourceAlpha" result="shadowOffsetOuter1"></feOffset>
            <feGaussianBlur stdDeviation="2" in="shadowOffsetOuter1" result="shadowBlurOuter1"></feGaussianBlur>
            <feColorMatrix values="0 0 0 0 0   0 0 0 0 0   0 0 0 0 0  0 0 0 0.5 0" type="matrix" in="shadowBlurOuter1" result="shadowMatrixOuter1"></feColorMatrix>
            <feMerge>
                <feMergeNode in="shadowMatrixOuter1"></feMergeNode>
                <feMergeNode in="SourceGraphic"></feMergeNode>
            </feMerge>
        </filter>
    </defs>
    <g id="Page-1" stroke="none" stroke-width="1" fill="none" fill-rule="evenodd">
        <g id="Contact" transform="translate(-763.000000, -755.000000)" fill="#FFFFFF">
            <g id="Group-4" filter="url(#filter-1)" transform="translate(767.000000, 757.000000)">
                <path d="M15.1526356,11.1124788 C14.7597561,10.7266553 14.2858704,10.5203735 13.7836326,10.5203735 C13.2854451,10.5203735 12.8075091,10.7228353 12.3984283,11.1086587 C12.3984283,11.1086587 10.9079161,12.2088285 10.8066585,12.1591681 C10.6608475,12.0904075 10.5231371,12.0254669 10.4056783,11.9567063 C9.20678802,11.2385399 8.11725599,10.3026316 7.07227733,9.09168081 C6.56598921,8.48811545 6.2257636,7.98005093 5.978695,7.46434635 C6.31082,7.1778438 6.61864317,6.87988115 6.91836574,6.59337861 C7.03177428,6.48641766 7.14518281,6.37563667 7.25859135,6.26867572 C8.10915538,5.46646859 8.10915538,4.42741935 7.25859135,3.62521222 C7.25859135,3.62521222 5.8976889,2.34168081 5.77617975,2.21943973 C5.53316146,1.98259762 5.27799225,1.73811545 5.01472243,1.50891341 C4.62184285,1.14219015 4.15200748,0.947368421 3.65789053,0.947368421 C3.16375333,0.947368421 2.68581735,1.14219015 2.28078686,1.50891341 C2.27673655,1.51273345 2.27673655,1.51273345 2.27268625,1.51655348 L0.895582573,2.82682513 C0.377143544,3.31578947 0.0814712843,3.91171477 0.0166664056,4.60314092 C-0.0805409125,5.71859083 0.267785311,6.75764007 0.535105435,7.43760611 C1.19125483,9.10696095 2.17142862,10.6540747 3.6335887,12.3119694 C5.407602,14.3098472 7.5421127,15.8875212 9.98039626,16.9991511 C10.9119664,17.4155348 12.15541,17.9083192 13.5446646,17.9923599 C13.629721,17.99618 13.7188277,18 13.7998338,18 C14.7354542,18 15.5212134,17.6829372 16.1368597,17.0526316 C16.14091,17.0449915 16.1490107,17.0411715 16.153061,17.0335314 C16.3636768,16.7928693 16.6066951,16.5751273 16.8618643,16.3421053 C17.0360274,16.1854839 17.2142408,16.0212224 17.388404,15.8493209 C17.7893841,15.4558574 18,14.9974533 18,14.5275891 C18,14.0539049 17.7853338,13.5993209 17.376253,13.2173175 L15.1526356,11.1124788 Z" id="Fill-1"></path>
                <path d="M10.4669237,3.90826695 C11.5678191,4.08343432 12.5678691,4.57708781 13.3662283,5.33349237 C14.1645875,6.08989692 14.6814201,7.03739315 14.8705052,8.08043521 C14.916726,8.34318627 15.1562337,8.52631579 15.4293566,8.52631579 C15.4629718,8.52631579 15.492385,8.52233471 15.5260001,8.51835364 C15.83694,8.47058072 16.0428327,8.19190536 15.99241,7.89730569 C15.7655079,6.63530441 15.1352243,5.48477328 14.1729913,4.57310674 C13.2107583,3.6614402 11.9964119,3.06427871 10.6644126,2.84930057 C10.3534726,2.80152766 10.0635422,2.99660041 10.0089176,3.287219 C9.95429303,3.57783759 10.1559838,3.86049403 10.4669237,3.90826695 Z" id="Fill-2"></path>
                <path d="M18.9917559,7.93412041 C18.6352591,5.95254355 17.6498859,4.14938454 16.1357759,2.71444957 C14.6216659,1.27951461 12.7190145,0.345668044 10.6281006,0.0078129859 C10.3356931,-0.0415366293 10.059308,0.148269583 10.0072354,0.425386653 C9.95916844,0.706299847 10.155442,0.96823242 10.451855,1.01758203 C12.3184563,1.31747585 14.0208286,2.15641931 15.3747153,3.43571318 C16.7286021,4.71880317 17.6098301,6.33215598 17.9262711,8.10114987 C17.9703325,8.35169407 18.1986507,8.52631579 18.4590135,8.52631579 C18.4910582,8.52631579 18.5190972,8.52251967 18.5511419,8.51872354 C18.8435494,8.47696617 19.0438285,8.21123748 18.9917559,7.93412041 Z" id="Fill-3"></path>
            </g>
        </g>
    </g>
</svg>