
<svg width="18px" height="29px" viewBox="0 0 18 29" version="1.1" xmlns="http://www.w3.org/2000/svg" >
    <defs>
        <filter x="-70.6%" y="-70.6%" width="241.2%" height="241.2%" filterUnits="objectBoundingBox" id="filter-1">
            <feOffset dx="0" dy="2" in="SourceAlpha" result="shadowOffsetOuter1"></feOffset>
            <feGaussianBlur stdDeviation="2" in="shadowOffsetOuter1" result="shadowBlurOuter1"></feGaussianBlur>
            <feColorMatrix values="0 0 0 0 0   0 0 0 0 0   0 0 0 0 0  0 0 0 0.5 0" type="matrix" in="shadowBlurOuter1" result="shadowMatrixOuter1"></feColorMatrix>
            <feMerge>
                <feMergeNode in="shadowMatrixOuter1"></feMergeNode>
                <feMergeNode in="SourceGraphic"></feMergeNode>
            </feMerge>
        </filter>
    </defs>
    <g id="Page-1" stroke="none" stroke-width="1" fill="none" fill-rule="evenodd">
        <g id="Contact" transform="translate(-469.000000, -754.000000)" fill="#FFFFFF">
            <g id="Group-4" filter="url(#filter-1)" transform="translate(478.364237, 766.653840) scale(-1, -1) rotate(45.000000) translate(-478.364237, -766.653840) translate(469.864237, 758.153840)">
                <path d="M1.49206575,7.97242089 C3.51037392,8.29310956 5.3437989,9.19686855 6.80745749,10.5816605 C8.27111609,11.9664525 9.21864245,13.7010867 9.56529843,15.610642 C9.65003656,16.091675 10.0891341,16.4269404 10.5898594,16.4269404 C10.6514872,16.4269404 10.7054114,16.4196521 10.7670392,16.4123637 C11.3370957,16.3249031 11.7145655,15.8147166 11.6221239,15.2753766 C11.2061368,12.9649604 10.0506168,10.8586189 8.28652302,9.18958017 C6.52242924,7.52053924 4.29612748,6.42728456 1.85412866,6.0337121 C1.28407216,5.94625155 0.752532983,6.30338212 0.652387922,6.83543378 C0.55224286,7.36748544 0.922009242,7.88496034 1.49206575,7.97242089 Z" id="Fill-2"></path>
                <path d="M16.9498099,14.395976 C16.3160379,10.8781255 14.5642633,7.67701644 11.8725122,5.12960751 C9.18076107,2.58219858 5.79826957,0.924361021 2.08108945,0.324574263 C1.56125391,0.236964961 1.06990252,0.573923814 0.977329065,1.06588374 C0.891876649,1.56458284 1.24080735,2.02958606 1.76776392,2.11719536 C5.0861661,2.64959035 8.11260586,4.13894848 10.5195156,6.41005115 C12.9264253,8.687893 14.493053,11.5520432 15.0556147,14.6924998 C15.1339461,15.1372854 15.5398451,15.4472876 16.0027123,15.4472876 C16.0596806,15.4472876 16.1095279,15.4405484 16.1664961,15.4338092 C16.6863317,15.3596783 17.0423834,14.8879359 16.9498099,14.395976 Z" id="Fill-3"></path>
            </g>
        </g>
    </g>
</svg>