<?xml version="1.0" encoding="UTF-8"?>
<svg width="93px" height="93px" viewBox="0 0 93 93" version="1.1" xmlns="http://www.w3.org/2000/svg" xmlns:xlink="http://www.w3.org/1999/xlink">
    <!-- Generator: Sketch 57.1 (83088) - https://sketch.com -->
    <title>Group 7</title>
    <desc>Created with Sketch.</desc>
    <g id="Page-1" stroke="none" stroke-width="1" fill="none" fill-rule="evenodd">
        <g id="Wohlgensinger---Landing-Page" transform="translate(-256.000000, -3854.000000)">
            <g id="Group-7" transform="translate(255.387850, 3853.960784)">
                <polygon id="Fill-1" fill="#B3B3B3" points="18.2738172 54.0392157 0.612149533 79.3871792 17.6646584 76.2577314 20.8447634 93.0392157 37.6121495 68.9745967"></polygon>
                <polygon id="Fill-2" fill="#B3B3B3" points="75.9504634 54.0392157 56.6121495 68.9745967 73.3802747 93.0392157 76.5596591 76.2577314 93.6121495 79.3871792"></polygon>
                <path d="M47.1113311,0.0392156863 C26.4343755,0.0392156863 9.61214953,16.8613818 9.61214953,37.5395521 C9.61214953,58.216995 26.4343755,75.0392157 47.1113311,75.0392157 C67.7891961,75.0392157 84.6121495,58.216995 84.6121495,37.5388247 C84.6121495,16.8613818 67.7891961,0.0392156863 47.1113311,0.0392156863 Z" id="Fill-3" fill="#E6E6E6"></path>
                <path d="M47.6121495,0.0392156863 L47.6121495,75.0392157 C68.0138644,75.0392157 84.6121495,58.216995 84.6121495,37.5388247 C84.6121495,16.8613818 68.0138644,0.0392156863 47.6121495,0.0392156863 Z" id="Fill-4" fill="#CCCCCC"></path>
                <path d="M24.4235674,29.7802969 L24.7576073,22.9974987 C25.7121851,22.4561152 26.8973502,21.9943888 28.3132806,21.6123195 C29.729211,21.2302503 31.3281868,21.0392157 33.1098517,21.0392157 C35.6553926,21.0392157 37.7077082,21.3974056 39.2667986,22.1139636 C40.825889,22.8303434 41.9713467,23.809574 42.7031719,25.0514773 C43.4349971,26.2933805 43.8009097,27.694598 43.8009097,29.2549517 C43.8009097,31.4522062 42.7348666,33.5936829 40.6031363,35.6793817 C38.471228,37.7652588 35.5599526,40.0658715 31.868954,42.5815765 C31.1690014,43.0910615 30.3417363,43.7121022 29.3871584,44.4445204 C28.4325806,45.1769386 27.5417481,45.8933184 26.714483,46.5938381 L44.6121495,46.5938381 L44.6121495,52.0392157 L23.6121495,52.0392157 L23.6121495,48.0269541 C24.7576073,46.9122885 25.8792051,45.8058203 26.9769429,44.707193 C28.0746807,43.6085658 29.1166858,42.5657163 30.1031363,41.5784665 C32.3940519,39.2220759 34.1043149,37.1283579 35.2337473,35.2973125 C36.3633578,33.466267 36.928163,31.4999648 36.928163,29.3982276 C36.928163,27.2009731 36.5303778,25.4257055 35.7349853,24.0722466 C34.9394147,22.718966 33.7462369,22.0421474 32.1554519,22.0421474 C31.1690014,22.0421474 30.254309,22.2889599 29.4110184,22.7825848 C28.5679059,23.2762097 27.8280681,24.1280245 27.1916828,25.3380292 L24.9007673,29.7802969 L24.4235674,29.7802969 Z" id="Fill-5" fill="#515151"></path>
                <path d="M59.0870055,53.0392157 C57.0827708,53.0392157 55.2036021,52.4929939 53.4498734,51.4005505 C51.6959577,50.3082868 50.2845248,48.5894323 49.2155747,46.243987 C48.1466246,43.8985418 47.6121495,40.8463165 47.6121495,37.0873112 C47.6121495,33.2961224 48.1466246,30.2198044 49.2155747,27.8583573 C50.2845248,25.4969101 51.6959577,23.7701446 53.4498734,22.6777011 C55.2036021,21.5852576 57.0827708,21.0392157 59.0870055,21.0392157 C61.0914271,21.0392157 62.9704088,21.5852576 64.7243245,22.6777011 C66.4780532,23.7701446 67.8978987,25.4969101 68.9834868,27.8583573 C70.069262,30.2198044 70.6121495,33.2961224 70.6121495,37.0873112 C70.6121495,40.8463165 70.069262,43.8985418 68.9834868,46.243987 C67.8978987,48.5894323 66.4780532,50.3082868 64.7243245,51.4005505 C62.9704088,52.4929939 61.0914271,53.0392157 59.0870055,53.0392157 Z M59.0870055,52.0753267 C59.9222746,52.0753267 60.6321039,51.8664032 61.2166801,51.4487359 C61.8012563,51.0310687 62.2774046,50.2761032 62.6447511,49.1836597 C63.0122845,48.091396 63.2794285,46.5733742 63.4465571,44.6295943 C63.6134988,42.6858144 63.6970631,40.1717201 63.6970631,37.0873112 C63.6970631,34.0030822 63.6134988,31.4728062 63.4465571,29.4970225 C63.2794285,27.521059 63.0122845,25.9868556 62.6447511,24.8945919 C62.2774046,23.8021484 61.8012563,23.0471829 61.2166801,22.6295157 C60.6321039,22.2118484 59.9222746,22.0029249 59.0870055,22.0029249 C58.2519232,22.0029249 57.542094,22.2118484 56.9575178,22.6295157 C56.3727546,23.0471829 55.8967932,23.7942373 55.5292599,24.8704992 C55.1619134,25.946761 54.8945824,27.4728736 54.7276408,29.448837 C54.5605121,31.4246207 54.4769478,33.9708986 54.4769478,37.0873112 C54.4769478,40.1717201 54.5605121,42.6937255 54.7276408,44.6536871 C54.8945824,46.6134688 55.1619134,48.1314906 55.5292599,49.2077524 C55.8967932,50.284194 56.3727546,51.0310687 56.9575178,51.4487359 C57.542094,51.8664032 58.2519232,52.0753267 59.0870055,52.0753267 Z" id="Fill-6" fill="#515151"></path>
            </g>
        </g>
    </g>
</svg>