<?xml version="1.0" encoding="UTF-8" standalone="no"?><!DOCTYPE svg PUBLIC "-//W3C//DTD SVG 1.1//EN" "http://www.w3.org/Graphics/SVG/1.1/DTD/svg11.dtd"><svg width="100%" height="100%" viewBox="0 0 122 125" version="1.1" xmlns="http://www.w3.org/2000/svg" xmlns:xlink="http://www.w3.org/1999/xlink" xml:space="preserve" xmlns:serif="http://www.serif.com/" style="fill-rule:evenodd;clip-rule:evenodd;stroke-linejoin:round;stroke-miterlimit:2;"><path d="M61,1c-33.7,0 -61,27.3 -61,61c0,33.7 27.3,61 61,61c33.7,0 61,-27.3 61,-61c0,-33.7 -27.3,-61 -61,-61Zm40,61c0,22.1 -17.9,40 -40,40c-22.1,0 -40,-17.9 -40,-40c0,-22.1 17.9,-40 40,-40c10.5,0 20.4,4 27.9,11.3l-7,7.2c-5.6,-5.5 -13,-8.5 -20.9,-8.5c-16.5,0 -30,13.5 -30,30c0,16.5 13.5,30 30,30c14.8,0 27.6,-10.8 30,-25l-30,0l0,-10l40,0l0,5Z" style="fill-rule:nonzero;"/></svg>