<?xml version="1.0" encoding="UTF-8"?>
<svg width="24px" height="24px" viewBox="0 0 24 24" version="1.1" xmlns="http://www.w3.org/2000/svg" xmlns:xlink="http://www.w3.org/1999/xlink">
    <!-- Generator: Sketch 57.1 (83088) - https://sketch.com -->
    <title>7</title>
    <desc>Created with Sketch.</desc>
    <g id="Page-1" stroke="none" stroke-width="1" fill="none" fill-rule="evenodd">
        <g id="Wohlgensinger---Landing-Page" transform="translate(-261.000000, -2202.000000)" fill="#404040">
            <path d="M273,2204 C268.02975,2204 264,2205.34325 264,2207 C264,2208.65675 268.02975,2210 273,2210 C277.97025,2210 282,2208.65675 282,2207 C282,2205.34325 277.97025,2204 273,2204 L273,2204 Z M264,2217 C266.199,2215.83666 269.41125,2215.09839 273,2215.09839 C276.58875,2215.09839 279.801,2215.83666 282,2217 L282,2210 C279.801,2211.16414 276.58875,2211.90241 273,2211.90241 C269.41125,2211.90241 266.199,2211.16414 264,2210 L264,2217 Z M273,2224 C277.97025,2224 282,2222.65675 282,2221 C282,2219.34325 277.97025,2218 273,2218 C268.02975,2218 264,2219.34325 264,2221 C264,2222.65675 268.02975,2224 273,2224 L273,2224 Z M285,2220.75 C285,2223.6495 279.627,2226 273,2226 C266.373,2226 261,2223.6495 261,2220.75 L261,2207.25 C261,2207.145 261.01125,2207.05575 261.0315,2206.97775 C261.357,2204.20575 266.58225,2202 273,2202 C279.41775,2202 284.643,2204.20575 284.9685,2206.97775 C284.98875,2207.05575 285,2207.145 285,2207.25 L285,2220.75 Z" id="7"></path>
        </g>
    </g>
</svg>