<?xml version="1.0" encoding="UTF-8"?>
<svg width="22px" height="35px" viewBox="0 0 22 35" version="1.1" xmlns="http://www.w3.org/2000/svg" xmlns:xlink="http://www.w3.org/1999/xlink">
    <!-- Generator: Sketch 57.1 (83088) - https://sketch.com -->
    <title>14</title>
    <desc>Created with Sketch.</desc>
    <g id="Page-1" stroke="none" stroke-width="1" fill="none" fill-rule="evenodd">
        <g id="Wohlgensinger---Landing-Page" transform="translate(-892.000000, -1379.000000)" fill="#575757">
            <g id="Group-4" transform="translate(892.000000, 1379.000000)">
                <path d="M21.3480199,12.4583728 C20.4787132,13.3209853 19.0697988,13.3209853 18.201591,12.4583728 L13.187966,7.48167834 L13.187966,13.2717869 L21.3480199,21.372035 C22.2173267,22.2346474 22.2173267,23.6340694 21.3480199,24.4966819 C20.4787132,25.3592944 19.0697988,25.3592944 18.201591,24.4966819 L13.187966,19.5188941 L13.187966,32.8112165 C13.187966,34.0204046 12.1999675,35 10.9822787,35 C9.7689858,35 8.78428434,34.0214979 8.78428434,32.8134031 L8.78428434,19.5352936 L3.78714423,24.5065216 C2.92003547,25.3691341 1.51551709,25.3691341 0.649507325,24.5065216 C-0.216502442,23.6450024 -0.216502442,22.247767 0.649507325,21.3862479 L8.78428434,13.2936528 L8.78428434,7.5079175 L3.78714423,12.4802388 C2.92003547,13.3428513 1.51551709,13.3428513 0.649507325,12.4802388 C-0.216502442,11.6187196 -0.216502442,10.2214842 0.649507325,9.35996505 L9.4206037,0.634350229 C9.85360858,0.203590645 10.4162951,0.0264762981 10.9822787,0.0352226856 L10.9822787,0.000237135587 C11.5504602,-0.00741595347 12.1153447,0.169698393 12.5494486,0.600457978 L21.3480199,9.33481919 C22.2173267,10.1974317 22.2173267,11.5957604 21.3480199,12.4583728" id="14"></path>
            </g>
        </g>
    </g>
</svg>