<?xml version="1.0" encoding="UTF-8"?>
<svg width="73px" height="58px" viewBox="0 0 73 58" version="1.1" xmlns="http://www.w3.org/2000/svg" xmlns:xlink="http://www.w3.org/1999/xlink">
    <!-- Generator: Sketch 57.1 (83088) - https://sketch.com -->
    <title>Group 2</title>
    <desc>Created with Sketch.</desc>
    <g id="Page-1" stroke="none" stroke-width="1" fill="none" fill-rule="evenodd">
        <g id="Wohlgensinger-Mobile" transform="translate(-34.000000, -9.000000)">
            <g id="Group-2" transform="translate(34.000000, 9.000000)">
                <path d="M69.8733692,44 C69.8087503,44 69.7431755,43.9865114 69.6800861,43.9585707 C69.4388168,43.8506618 69.3298441,43.5662447 69.4365226,43.3230643 C75.6890691,29.0902639 70.3612609,12.378449 57.0440347,4.44964886 C54.3308061,2.83429096 51.4126325,1.65712033 48.3707652,0.95108772 C48.1136279,0.891545123 47.9530366,0.632949119 48.0123025,0.373582337 C48.0715683,0.114408249 48.3281321,-0.0470697322 48.5852694,0.0122801704 C51.7229178,0.740472644 54.7322844,1.95425523 57.5302058,3.62009908 C71.2647783,11.7972824 76.7592955,29.0336117 70.3107894,43.7128852 C70.2316408,43.8928619 70.056711,44 69.8733692,44 Z" id="Fill-1" fill="#BEA783"></path>
                <path d="M47.8166991,58 C47.597042,58 47.4007046,57.8439285 47.3561338,57.6181755 C47.3053569,57.3610943 47.4706639,57.1112281 47.7253007,57.0597739 C60.0894765,54.5696556 69.0619433,43.5085182 69.0596866,30.7592647 C69.0585582,23.5968758 66.2946021,16.8635885 61.2772799,11.8 C56.2612742,6.73736084 49.5925742,3.94933978 42.5001693,3.94933978 C42.4984767,3.94933978 42.4971603,3.94933978 42.4954677,3.94933978 C35.4009941,3.95047899 28.73173,6.74096833 23.7161003,11.8064555 C18.7006964,16.8717528 15.9391851,23.6059895 15.9403135,30.7683784 C15.9403135,31.0303961 15.7298714,31.2430482 15.470157,31.2430482 C15.2104425,31.2430482 15,31.030586 15,30.7683784 C14.998684,23.3525158 17.8579878,16.3799948 23.051299,11.1352723 C28.2444598,5.89035989 35.1497424,3.00132908 42.4952797,3 C42.4965961,3 42.4988528,3 42.5001693,3 C49.8440139,3 56.7481682,5.88637266 61.9420812,11.128437 C67.1371226,16.3714508 69.9986832,23.3430224 70,30.7592647 C70.0022563,43.9596444 60.7117757,55.4122896 47.9092259,57.9908863 C47.8781955,57.997152 47.8471652,58 47.8166991,58 Z" id="Fill-2" fill="#BEA783"></path>
                <path d="M65.5210815,23 C65.3240427,23 65.1394504,22.8744822 65.0699411,22.6730653 C62.4534801,15.1004181 56.4019566,9.23873572 48.882312,6.9931434 C41.610067,4.82129281 33.9110003,6.18119998 27.7585638,10.7241607 C27.5442913,10.8828231 27.2451906,10.8330082 27.0904701,10.613352 C26.9357496,10.3934997 26.984387,10.0869616 27.198851,9.9286915 C33.5921766,5.20784848 41.5935992,3.79479235 49.1503921,6.05175972 C56.9647332,8.38541064 63.2535075,14.4767514 65.9724134,22.3459345 C66.0606883,22.6012848 65.930095,22.8815426 65.6807806,22.9717585 C65.628122,22.9907823 65.5741231,23 65.5210815,23 Z" id="Fill-3" fill="#BEA783"></path>
                <path d="M44.2284492,35.0006028 C42.7779743,33.6850552 41.0090522,33.2351445 39.2759929,33.2353283 C36.8438893,33.2358796 35.3205621,34.1452579 34.4161042,34.8886765 C34.1408426,35.1149184 33.7223172,34.927088 33.7223172,34.5755034 L33.7210029,26.4118668 C33.7210029,26.1843384 33.5324881,26 33.3000366,26 L27.4207785,26.0009189 C27.188327,26.0011027 27,26.1854411 27,26.4129695 L27.0011266,32.4851096 C27.0011266,32.7126379 27.1894536,32.8969763 27.4219051,32.8969763 L30.6801692,32.896425 C30.9642557,32.896425 31.1668528,33.1664081 31.081608,33.4319804 L30.9524266,33.834474 L27.7061794,43.936145 L27.0229072,46.0620097 C27.0099515,46.1020753 27.0033797,46.1439788 27.0035675,46.1856984 L27.0043186,50.5881332 C27.0043186,50.8156616 27.1928334,51 27.4250971,51 L33.2335682,50.9990811 C33.4660197,50.9990811 33.6545345,50.8145589 33.6543467,50.5870305 L33.6530324,43.1390606 C33.6528446,41.6849375 33.6526569,40.5770693 33.8293425,39.78072 C34.006216,39.0880266 34.5009734,37.3567527 36.6236424,37.3563851 C39.382455,37.3558338 39.3830183,40.194976 39.383206,41.6492829 L39.3848959,50.5859278 C39.3848959,50.8136399 39.5734107,50.9979783 39.8056744,50.9979783 L45.5790337,50.9970594 C45.811673,50.9968756 46,50.8125372 46,50.5850089 L45.9981224,40.8861991 C45.9977468,38.4627831 45.9973713,36.5583818 44.2284492,35.0006028 Z" id="Fill-4" fill="#57BC6E"></path>
                <path d="M28.9713756,33.787399 C29.0954151,33.3971246 28.8007974,32.9998098 28.3873326,33 L23.9401823,33.0007612 C23.4644093,33.0007612 23.0470984,33.3153021 22.9205589,33.7689413 L20.1607296,43.6542418 C20.0884213,43.9137904 19.7182261,43.918928 19.6384178,43.6616629 L16.5707399,33.7636134 C16.4303541,33.3111159 16.0080431,33.0020932 15.5297702,33.0022835 L13.2526369,33.0026641 C12.7882102,33.0026641 12.3835916,33.3168244 12.2735908,33.7632328 L9.81607148,43.7117078 C9.76645571,43.9118875 9.47972269,43.9134098 9.42818382,43.7139912 L6.85662518,33.787399 C6.73720117,33.3263387 6.31719787,33.0038058 5.83604025,33.0038058 L0.865424326,33.0047572 C0.284458229,33.0049475 -0.131121955,33.5605794 0.0381101422,34.1103124 L4.95064869,50.0497172 C5.12468852,50.6141022 5.65123111,51.0001902 6.24796656,51 L12.1124357,50.9990485 C12.4572461,50.9988582 12.7530176,50.7556741 12.816095,50.4202018 L14.1866827,43.133432 C14.2284138,42.9109889 14.5511086,42.9146044 14.5882243,43.1376183 L15.794003,50.408975 C15.8505419,50.7488239 16.1474673,50.9982874 16.495547,50.9982874 L22.5953641,50.9971457 C23.1340221,50.9971457 23.6099874,50.6512077 23.7717194,50.1433373 L25.8965438,43.4588192 L28.9713756,33.787399 Z" id="Fill-5" fill="#57BC6E"></path>
            </g>
        </g>
    </g>
</svg>