
<svg width="23px" height="23px" viewBox="0 0 23 23" version="1.1" >
    
    <g id="Page-1" stroke="none" stroke-width="1" fill="none" fill-rule="evenodd">
        <g id="Contact" transform="translate(-622.000000, -1072.000000)" fill="#FFFFFF">
            <path d="M644.882897,1072.09219 C644.780515,1071.99516 644.634814,1071.97265 644.511322,1072.03454 L622.198941,1083.23588 C622.078819,1083.29621 622.001464,1083.4257 622.000021,1083.56879 C621.998577,1083.71188 622.073387,1083.84316 622.19234,1083.90623 L628.506716,1087.25448 C628.622506,1087.31592 628.760575,1087.30203 628.863989,1087.21852 L635.003282,1082.26064 L630.183666,1087.61718 C630.114907,1087.69363 630.07984,1087.79831 630.087403,1087.90455 L630.567274,1094.65699 C630.577932,1094.80661 630.670757,1094.93455 630.802706,1094.98143 C630.83798,1094.99391 630.874216,1095 630.91004,1095 C631.008297,1095 631.103872,1094.95446 631.170363,1094.87125 L634.52183,1090.67502 L638.664923,1092.81392 C638.75486,1092.86035 638.858962,1092.86229 638.950343,1092.81934 C639.041724,1092.77633 639.111308,1092.69267 639.14115,1092.59 L644.98418,1072.48275 C645.025023,1072.34234 644.985211,1072.18922 644.882897,1072.09219 Z" id="Fill-1"></path>
        </g>
    </g>
</svg>