<?xml version="1.0" encoding="UTF-8"?>
<svg width="110px" height="94px" viewBox="0 0 110 94" version="1.1" xmlns="http://www.w3.org/2000/svg" xmlns:xlink="http://www.w3.org/1999/xlink">
    <!-- Generator: Sketch 53.2 (72643) - https://sketchapp.com -->
    <title>Group 16</title>
    <desc>Created with Sketch.</desc>
    <g id="Page-1" stroke="none" stroke-width="1" fill="none" fill-rule="evenodd">
        <g id="Wohlgensinger---Landing-Page" transform="translate(-432.000000, -3849.000000)" fill="#9D9D9D">
            <g id="Group-16" transform="translate(432.000000, 3849.000000)">
                <path d="M8.98780488,16.6841507 L10.4264482,16.6841507 C13.5181021,16.6841507 16.5668826,16.6841507 16.5668826,12.780421 C16.5668826,8.7489498 13.7349466,8.70717386 10.4264482,8.70717386 L8.98780488,8.70717386 L8.98780488,16.6841507 Z M0.451219512,3.2230139 C0.451219512,2.54772901 1.01333841,2 1.70407774,2 L13.5181021,2 C20.5731707,2 25.4512195,5.18425511 25.4512195,12.5251236 C25.4512195,20.0817416 21.2711509,23.3913245 13.8229802,23.3913245 L10.2406631,23.3913245 C9.54992378,23.3913245 8.98780488,23.9368255 8.98780488,24.6121104 L8.98780488,32.7792141 C8.98780488,33.4546847 8.42568598,34 7.73494665,34 L1.70407774,34 C1.01333841,34 0.451219512,33.4546847 0.451219512,32.7792141 L0.451219512,3.2230139 Z" id="Fill-1"></path>
                <path d="M39.3586034,26.9538321 L47.1807602,26.9538321 C47.8823284,26.9538321 48.4512195,27.5015579 48.4512195,28.1746108 L48.4512195,32.7768075 C48.4512195,33.4522742 47.8823284,34 47.1807602,34 L30.7191718,34 C30.0176037,34 29.4512195,33.4522742 29.4512195,32.7768075 L29.4512195,3.22077877 C29.4512195,2.54531213 30.0176037,2 30.7191718,2 L36.8201919,2 C37.52176,2 38.0906511,2.54531213 38.0906511,3.22077877 L38.0906511,25.7330533 C38.0906511,26.4061062 38.6570353,26.9538321 39.3586034,26.9538321" id="Fill-2"></path>
                <path d="M79.183324,-4.54747351e-13 C79.8848607,-4.54747351e-13 80.4512195,0.566910086 80.4512195,1.26353689 L80.4512195,18.6261672 C80.4512195,22.8852954 80.2753532,27.1032986 76.970533,30.3102801 C74.1936973,33.0318329 69.8307869,34 65.9524729,34 C62.0716521,34 57.7087418,33.0318329 54.931906,30.3102801 C51.6270858,27.1032986 51.4512195,22.8852954 51.4512195,18.6261672 L51.4512195,1.26353689 C51.4512195,0.566910086 52.0175783,-4.54747351e-13 52.719115,-4.54747351e-13 L58.8198617,-4.54747351e-13 C59.5213985,-4.54747351e-13 60.0877572,0.566910086 60.0877572,1.26353689 L60.0877572,17.4394994 C60.0877572,21.7441726 60.3962946,26.4428003 65.9524729,26.4428003 C71.5061445,26.4428003 71.8121749,21.7441726 71.8121749,17.4394994 L71.8121749,1.26353689 C71.8121749,0.566910086 72.3810406,-4.54747351e-13 73.0825773,-4.54747351e-13 L79.183324,-4.54747351e-13 Z" id="Fill-3"></path>
                <path d="M104.341802,8.13104041 C104.008834,8.78442414 103.194613,9.02066826 102.576764,8.62763519 C101.211748,7.76462096 99.6241138,7.22714149 97.9860942,7.22714149 C96.4078479,7.22714149 94.3077343,8.15514695 94.3077343,10.0065294 C94.3077343,11.9472025 96.6281663,12.6943125 98.1177105,13.1812647 L100.306526,13.8394697 C104.904476,15.2087213 108.45122,17.5422347 108.45122,22.922815 C108.45122,26.2277256 107.663246,29.6219268 105.036284,31.8709708 C102.452236,34.0743088 98.9941947,35 95.6631716,35 C91.8938107,35 88.1938022,33.8405717 85.0231326,31.8516855 C84.467547,31.5022371 84.2951239,30.7620698 84.6016539,30.1811985 L87.0228576,25.6009554 C87.3843714,24.9163296 88.2681357,24.718656 88.8834946,25.1863229 C90.7705699,26.6253871 92.9306484,27.6812537 95.3589406,27.6812537 C97.3705436,27.6812537 99.5187441,26.6687789 99.5187441,24.3329513 C99.5187441,21.9078331 96.1469142,21.0714325 94.3077343,20.5434028 C88.9195119,18.9982698 85.3752589,17.5879407 85.3752589,11.1516866 C85.3752589,4.406676 90.1479308,-4.54747351e-13 96.7599742,-4.54747351e-13 C99.6838871,-4.54747351e-13 103.182735,0.81711537 105.979821,2.15261783 C106.60725,2.45153896 106.837148,3.23741225 106.521038,3.85936105 L104.341802,8.13104041 Z" id="Fill-4"></path>
                <path d="M18.1924388,73.8046878 L18.1924388,65.386846 C18.1924388,64.6207993 18.7902207,64 19.5280544,64 L24.1157936,64 C24.8534376,64 25.4512195,64.6207993 25.4512195,65.386846 L25.4512195,91.6129569 C25.4512195,92.3792007 24.8534376,93 24.1157936,93 L19.5280544,93 C18.7902207,93 18.1924388,92.3792007 18.1924388,91.6129569 L18.1924388,82.5031703 C18.1924388,81.7369265 17.5946568,81.1161272 16.8570129,81.1161272 L9.04789319,81.1161272 C8.31005947,81.1161272 7.7124673,81.7369265 7.7124673,82.5031703 L7.7124673,91.6129569 C7.7124673,92.3792007 7.11221832,93 6.37438461,93 L1.78911244,93 C1.04900146,93 0.451219512,92.3792007 0.451219512,91.6129569 L0.451219512,65.386846 C0.451219512,64.6207993 1.04900146,64 1.78911244,64 L6.37438461,64 C7.11221832,64 7.7124673,64.6207993 7.7124673,65.386846 L7.7124673,73.8046878 C7.7124673,74.5707344 8.31005947,75.1915338 9.04789319,75.1915338 L16.8570129,75.1915338 C17.5946568,75.1915338 18.1924388,74.5707344 18.1924388,73.8046878" id="Fill-5"></path>
                <path d="M42.059787,72.9613827 L41.9835197,72.9613827 L38.8754284,82.1911635 L45.1285652,82.1911635 L42.059787,72.9613827 Z M36.6591541,88.3247102 L35.150515,92.1329283 C34.9441214,92.655142 34.4403244,93 33.8801132,93 L28.8211109,93 C27.8602994,93 27.1994467,92.0343975 27.5434361,91.1352047 L37.6174102,64.8794866 C37.8212484,64.3497846 38.3274042,64 38.8925296,64 L45.219575,64 C45.7896145,64 46.298129,64.3523464 46.4972497,64.8867778 L56.3622748,91.1450578 C56.6989913,92.0416888 56.037942,93 55.0822413,93 L49.9911988,93 C49.4186039,93 48.9100894,92.6427271 48.7086099,92.1082956 L47.3006123,88.3345633 C47.217072,88.110307 47.0034055,87.960146 46.7626129,87.960146 L37.1947947,87.960146 C36.9589162,87.960146 36.7476085,88.1053805 36.6591541,88.3247102 L36.6591541,88.3247102 Z" id="Fill-6"></path>
                <path d="M83.0788232,64 C83.8356852,64 84.4512195,64.6047226 84.4512195,65.3534268 L84.4512195,79.8857746 C84.4512195,83.5189096 84.2980173,87.1159532 81.4484942,89.851603 C79.0566312,92.1745057 75.2947079,93 71.9513168,93 C68.6079258,93 64.8460025,92.1745057 62.4516088,89.851603 C59.6046164,87.1159532 59.4512195,83.5189096 59.4512195,79.8857746 L59.4512195,65.3534268 C59.4512195,64.6047226 60.0644179,64 60.8212799,64 L65.527334,64 C66.2840013,64 66.8971997,64.6047226 66.8971997,65.3534268 L66.8971997,78.8731042 C66.8971997,82.546938 67.1648656,86.554425 71.9513168,86.554425 C76.7375734,86.554425 77.0052394,82.546938 77.0052394,78.8731042 L77.0052394,65.3534268 C77.0052394,64.6047226 77.6184377,64 78.3752997,64 L83.0788232,64 Z" id="Fill-7"></path>
                <path d="M105.96986,70.724939 C105.610154,71.414721 104.737991,71.6493592 104.058,71.2573276 C102.91246,70.5991017 101.606679,70.1973903 100.258917,70.1973903 C98.8742961,70.1973903 97.026493,70.9911333 97.026493,72.5786193 C97.026493,74.2412204 99.0664676,74.8824099 100.372248,75.298641 L102.296526,75.8649088 C106.334493,77.0361637 109.45122,79.0375576 109.45122,83.647462 C109.45122,86.4811244 108.758811,89.389902 106.450387,91.3186975 C104.181187,93.206257 101.143497,94 98.218942,94 C94.9963734,94 91.8329345,93.0610601 89.1007482,91.4396949 C88.4848139,91.0741859 88.2729325,90.2926395 88.6129282,89.6682929 L90.4853687,86.2052503 C90.8746392,85.4866225 91.8181521,85.2759902 92.4882887,85.75514 C94.0922803,86.9021954 95.9128837,87.7274945 97.9504931,87.7274945 C99.7194566,87.7274945 101.604117,86.8586363 101.604117,84.857436 C101.604117,82.7786038 98.6427048,82.059976 97.026493,81.6073489 C92.2961172,80.2862508 89.1795878,79.0762768 89.1795878,73.5587951 C89.1795878,67.779959 93.372869,64 99.1797996,64 C101.641172,64 104.568092,64.6437062 106.967772,65.7036435 C107.684621,66.0207535 107.992687,66.8555388 107.632981,67.5404809 L105.96986,70.724939 Z" id="Fill-8"></path>
                <path d="M5.0200031,44.6583663 L5.0200031,46.8844136 C5.0200031,47.1457039 5.21738902,47.3588768 5.45893406,47.3588768 L9.73296885,47.3588768 C9.97469123,47.3588768 10.1718998,47.5722415 10.1718998,47.8333401 L10.1718998,51.0660162 C10.1718998,51.3296069 9.97469123,51.5404795 9.73296885,51.5404795 L5.45893406,51.5404795 C5.21738902,51.5404795 5.0200031,51.7536524 5.0200031,52.0149427 L5.0200031,54.3416337 C5.0200031,54.6052244 5.21738902,54.8160969 5.45893406,54.8160969 L10.0122886,54.8160969 C10.2540109,54.8160969 10.4512195,55.0294616 10.4512195,55.2930523 L10.4512195,58.5255368 C10.4512195,58.7866353 10.2540109,59 10.0122886,59 L0.890150471,59 C0.648428089,59 0.451219512,58.7866353 0.451219512,58.5255368 L0.451219512,40.4744632 C0.451219512,40.2133647 0.648428089,40 0.890150471,40 L10.0122886,40 C10.2540109,40 10.4512195,40.2133647 10.4512195,40.4744632 L10.4512195,43.7094398 C10.4512195,43.9707301 10.2540109,44.1839031 10.0122886,44.1839031 L5.45893406,44.1839031 C5.21738902,44.1839031 5.0200031,44.397076 5.0200031,44.6583663" id="Fill-9"></path>
                <path d="M13.9263395,40 L18.1640258,40 C18.3103051,40 18.4494817,40.0670958 18.5383627,40.1821172 L27.4552609,51.6171604 L27.5055565,51.6171604 L27.5055565,40.4744632 C27.5055565,40.2133647 27.7192165,40 27.9806764,40 L31.9760995,40 C32.2400551,40 32.4512195,40.2133647 32.4512195,40.4744632 L32.4512195,58.5255368 C32.4512195,58.7866353 32.2400551,59 31.9760995,59 L27.7384132,59 C27.5919419,59 27.4527654,58.9304121 27.3640763,58.8153907 L18.4471781,47.3565764 L18.3966906,47.3565764 L18.3966906,58.5255368 C18.3966906,58.7866353 18.1832225,59 17.9215706,59 L13.9263395,59 C13.6646876,59 13.4512195,58.7866353 13.4512195,58.5255368 L13.4512195,40.4744632 C13.4512195,40.2133647 13.6646876,40 13.9263395,40" id="Fill-10"></path>
                <path d="M42.0200994,44.6583663 L42.0200994,46.8844136 C42.0200994,47.1457039 42.2173045,47.3588768 42.4590226,47.3588768 L46.7329816,47.3588768 C46.9745223,47.3588768 47.1719048,47.5722415 47.1719048,47.8333401 L47.1719048,51.0660162 C47.1719048,51.3296069 46.9745223,51.5404795 46.7329816,51.5404795 L42.4590226,51.5404795 C42.2173045,51.5404795 42.0200994,51.7536524 42.0200994,52.0149427 L42.0200994,54.3416337 C42.0200994,54.6052244 42.2173045,54.8160969 42.4590226,54.8160969 L47.0122963,54.8160969 C47.2538371,54.8160969 47.4512195,55.0294616 47.4512195,55.2930523 L47.4512195,58.5255368 C47.4512195,58.7866353 47.2538371,59 47.0122963,59 L37.8901427,59 C37.6486019,59 37.4512195,58.7866353 37.4512195,58.5255368 L37.4512195,40.4744632 C37.4512195,40.2133647 37.6486019,40 37.8901427,40 L47.0122963,40 C47.2538371,40 47.4512195,40.2133647 47.4512195,40.4744632 L47.4512195,43.7094398 C47.4512195,43.9707301 47.2538371,44.1839031 47.0122963,44.1839031 L42.4590226,44.1839031 C42.2173045,44.1839031 42.0200994,44.397076 42.0200994,44.6583663" id="Fill-11"></path>
                <path d="M56.6114705,48.5173009 L57.1122323,48.5173009 C58.7973962,48.5173009 60.6926797,48.2153301 60.6926797,46.1494667 C60.6926797,44.0813025 58.7973962,43.7793318 57.1122323,43.7793318 L56.6114705,43.7793318 L56.6114705,48.5173009 Z M66.9548071,59 L61.8069751,59 C61.6391197,59 61.4788759,58.9185158 61.3887388,58.7818141 L56.6641506,51.6928829 L56.6114705,51.6928829 L56.6114705,58.5254745 C56.6114705,58.7890998 56.3887316,59 56.1157162,59 L51.9469738,59 C51.6739584,59 51.4512195,58.7890998 51.4512195,58.5254745 L51.4512195,40.4745255 C51.4512195,40.2109002 51.6739584,40 51.9469738,40 L59.165356,40 C63.0889255,40 66.063451,41.7878586 66.063451,45.8451952 C66.063451,48.2345029 64.7939195,50.3316179 62.4353311,51.0458027 C62.1024246,51.1464596 61.9672189,51.5226289 62.1799425,51.7887466 L67.3478051,58.2378833 C67.598186,58.5494405 67.3654319,59 66.9548071,59 L66.9548071,59 Z" id="Fill-12"></path>
                <path d="M86.974047,47.9064302 C87.2413606,47.9064302 87.4581794,48.1240664 87.4510485,48.3865546 C87.3835937,50.9202184 87.1089565,53.1202365 85.5116276,55.3202546 C83.6807126,57.8253418 80.9513,58.9513726 77.8483808,58.9986848 C72.0376345,59.090849 67.2483462,54.326698 67.4578414,48.6231157 C67.6723476,42.799171 71.8159975,39 77.8121479,39 C81.5655238,39 84.511948,40.5944217 86.2006299,43.8020008 C86.3284085,44.0410221 86.2102663,44.339089 85.9574073,44.4431759 L82.1510312,46.0092103 C81.9197577,46.1061057 81.6451205,46.0114813 81.5414329,45.7868429 C80.8019359,44.2208085 79.4310623,43.2060561 77.5833799,43.2060561 C74.3141365,43.2060561 72.618131,46.2646963 72.618131,49.1246252 C72.618131,52.0367867 74.3912277,54.9960713 77.6579656,54.9960713 C79.6141538,54.9960713 81.1511588,54.0924079 81.570342,52.3064664 C81.6377968,52.0154016 81.4042106,51.7362595 81.1006641,51.7362595 L78.0867852,51.7362595 C77.8217843,51.7362595 77.6097837,51.5280858 77.6097837,51.2678686 L77.6097837,48.3748211 C77.6097837,48.1168749 77.8217843,47.9064302 78.0867852,47.9064302 L86.974047,47.9064302 Z" id="Fill-13"></path>
                <path d="M94.9708608,59 L90.9315782,59 C90.6670413,59 90.4512195,58.786827 90.4512195,58.5255368 L90.4512195,40.4744632 C90.4512195,40.2133647 90.6670413,40 90.9315782,40 L94.9708608,40 C95.2353978,40 95.4512195,40.2133647 95.4512195,40.4744632 L95.4512195,58.5255368 C95.4512195,58.786827 95.2353978,59 94.9708608,59" id="Fill-14"></path>
                <path d="M103.020099,44.6583663 L103.020099,46.8844136 C103.020099,47.1457039 103.217304,47.3588768 103.459023,47.3588768 L107.732982,47.3588768 C107.974522,47.3588768 108.171905,47.5722415 108.171905,47.8333401 L108.171905,51.0660162 C108.171905,51.3296069 107.974522,51.5404795 107.732982,51.5404795 L103.459023,51.5404795 C103.217304,51.5404795 103.020099,51.7536524 103.020099,52.0149427 L103.020099,54.3416337 C103.020099,54.6052244 103.217304,54.8160969 103.459023,54.8160969 L108.012296,54.8160969 C108.253837,54.8160969 108.45122,55.0294616 108.45122,55.2930523 L108.45122,58.5255368 C108.45122,58.7866353 108.253837,59 108.012296,59 L98.8901427,59 C98.6486019,59 98.4512195,58.7866353 98.4512195,58.5255368 L98.4512195,40.4744632 C98.4512195,40.2133647 98.6486019,40 98.8901427,40 L108.012296,40 C108.253837,40 108.45122,40.2133647 108.45122,40.4744632 L108.45122,43.7094398 C108.45122,43.9707301 108.253837,44.1839031 108.012296,44.1839031 L103.459023,44.1839031 C103.217304,44.1839031 103.020099,44.397076 103.020099,44.6583663" id="Fill-15"></path>
            </g>
        </g>
    </g>
</svg>