
<svg width="32px" height="8px" viewBox="0 0 32 8" version="1.1" xmlns="http://www.w3.org/2000/svg" >
   
    <g id="Page-1" stroke="none" stroke-width="1" fill="none" fill-rule="evenodd">
        <g id="Blog/News" transform="translate(-704.000000, -2855.000000)" fill="#57BC6E">
            <path d="M732,2855 C729.791,2855 728,2856.791 728,2859 C728,2861.209 729.791,2863 732,2863 C734.209,2863 736,2861.209 736,2859 C736,2856.791 734.209,2855 732,2855 M720,2855 C717.791,2855 716,2856.791 716,2859 C716,2861.209 717.791,2863 720,2863 C722.209,2863 724,2861.209 724,2859 C724,2856.791 722.209,2855 720,2855 M708,2855 C705.791,2855 704,2856.791 704,2859 C704,2861.209 705.791,2863 708,2863 C710.209,2863 712,2861.209 712,2859 C712,2856.791 710.209,2855 708,2855" id="11"></path>
        </g>
    </g>
</svg>