<?xml version="1.0" encoding="UTF-8"?>
<svg width="88px" height="95px" viewBox="0 0 88 95" version="1.1" xmlns="http://www.w3.org/2000/svg" xmlns:xlink="http://www.w3.org/1999/xlink">
    <!-- Generator: Sketch 57.1 (83088) - https://sketch.com -->
    <title>Group 5</title>
    <desc>Created with Sketch.</desc>
    <g id="Page-1" stroke="none" stroke-width="1" fill="none" fill-rule="evenodd">
        <g id="Wohlgensinger---Landing-Page" transform="translate(-432.000000, -3849.000000)">
            <g id="Group-5" transform="translate(432.000000, 3849.000000)">
                <path d="M43.7,95 C69.56098,85.3036914 86.7,60.536709 86.7,32.8627637 L86.7,16.0898828 C77.834013,16.0898828 70.6467358,8.88621094 70.6467358,0 L43.7,0 L16.7532642,0 C16.7532642,8.88621094 9.56598702,16.0898828 0.7,16.0898828 L0.7,32.8625781 C0.7,60.536709 17.83902,85.3036914 43.7,95 Z" id="Fill-1" fill-opacity="0.8815" fill="#D9D9D9"></path>
                <path d="M44.7,95 C70.56098,85.3036914 87.7,60.536709 87.7,32.8627637 L87.7,16.0898828 C78.834013,16.0898828 71.6467358,8.88621094 71.6467358,0 L44.7,0 C44.7,0 44.7,73.8476562 44.7,95 Z" id="Fill-2" fill="#CCCCCC"></path>
                <polygon id="Fill-3" fill="#FFFFFF" points="38.1343544 64 23.7 49.7826809 31.6529353 41.9490399 38.1343544 48.3330871 56.7470647 30 64.7 37.8334564"></polygon>
                <polygon id="Fill-4" fill="#FFFFFF" points="44.7 58 44.7 42.3473311 56.9410388 30 64.7 37.8263344"></polygon>
            </g>
        </g>
    </g>
</svg>