<?xml version="1.0" encoding="UTF-8" standalone="no"?><!DOCTYPE svg PUBLIC "-//W3C//DTD SVG 1.1//EN" "http://www.w3.org/Graphics/SVG/1.1/DTD/svg11.dtd"><svg width="100%" height="100%" viewBox="0 0 1058 303" version="1.1" xmlns="http://www.w3.org/2000/svg" xmlns:xlink="http://www.w3.org/1999/xlink" xml:space="preserve" xmlns:serif="http://www.serif.com/" style="fill-rule:evenodd;clip-rule:evenodd;stroke-linejoin:round;stroke-miterlimit:2;"><g><path d="M363.584,228.774c-0.338,0 -0.681,-0.07 -1.011,-0.215c-1.262,-0.56 -1.832,-2.036 -1.274,-3.298c32.705,-73.862 4.837,-160.589 -64.821,-201.736c-14.192,-8.383 -29.456,-14.492 -45.367,-18.156c-1.345,-0.309 -2.185,-1.651 -1.875,-2.997c0.31,-1.345 1.652,-2.183 2.997,-1.875c16.412,3.779 32.153,10.078 46.788,18.723c71.841,42.436 100.581,131.885 66.851,208.064c-0.414,0.934 -1.329,1.49 -2.288,1.49Z" style="fill:#bda783;fill-rule:nonzero;"/><path d="M246.243,303c-1.168,0 -2.212,-0.822 -2.449,-2.011c-0.27,-1.354 0.609,-2.67 1.963,-2.941c65.745,-13.115 113.455,-71.372 113.443,-138.52c-0.006,-37.723 -14.703,-73.186 -41.382,-99.855c-26.672,-26.664 -62.132,-41.348 -99.845,-41.348l-0.025,0c-37.724,0.006 -73.187,14.703 -99.857,41.382c-26.669,26.678 -41.353,62.146 -41.347,99.869c0,1.38 -1.119,2.5 -2.5,2.5c-1.381,0 -2.5,-1.119 -2.5,-2.5c-0.007,-39.058 15.197,-75.781 42.812,-103.404c27.614,-27.624 64.332,-42.84 103.391,-42.847l0.026,0c39.05,0 75.762,15.202 103.38,42.811c27.624,27.614 42.84,64.332 42.847,103.392c0.012,69.524 -49.389,129.843 -117.465,143.424c-0.165,0.033 -0.33,0.048 -0.492,0.048Z" style="fill:#bda783;fill-rule:nonzero;"/><path d="M340.549,118.787c-1.029,0 -1.993,-0.64 -2.356,-1.667c-13.664,-38.612 -45.267,-68.5 -84.537,-79.95c-37.978,-11.074 -78.185,-4.14 -110.315,19.024c-1.119,0.809 -2.681,0.555 -3.489,-0.565c-0.808,-1.121 -0.554,-2.684 0.566,-3.491c33.388,-24.071 75.174,-31.276 114.638,-19.768c40.809,11.899 73.651,42.958 87.85,83.082c0.461,1.302 -0.221,2.731 -1.523,3.191c-0.275,0.097 -0.557,0.144 -0.834,0.144Z" style="fill:#bda783;fill-rule:nonzero;"/><path d="M226.401,179.021c-7.725,-7.158 -17.146,-9.606 -26.376,-9.605c-12.953,0.003 -21.066,4.951 -25.883,8.996c-1.466,1.231 -3.695,0.209 -3.695,-1.704l-0.007,-44.419c0,-1.238 -1.004,-2.241 -2.242,-2.241l-31.312,0.005c-1.238,0.001 -2.241,1.004 -2.241,2.242l0.006,33.039c0,1.238 1.003,2.241 2.241,2.241l17.353,-0.003c1.513,0 2.592,1.469 2.138,2.914l-0.688,2.19l-17.289,54.964l-3.639,11.567c-0.069,0.218 -0.104,0.446 -0.103,0.673l0.004,23.954c0,1.238 1.004,2.241 2.241,2.241l30.935,-0.005c1.238,0 2.242,-1.004 2.241,-2.242l-0.007,-40.525c-0.001,-7.912 -0.002,-13.94 0.939,-18.273c0.942,-3.769 3.577,-13.189 14.882,-13.191c14.693,-0.003 14.696,15.445 14.697,23.358l0.009,48.625c0,1.239 1.004,2.242 2.241,2.242l30.748,-0.005c1.239,-0.001 2.242,-1.004 2.242,-2.242l-0.01,-52.772c-0.002,-13.186 -0.004,-23.548 -9.425,-32.024Z" style="fill:#56bc6e;fill-rule:nonzero;"/><path d="M150.65,175.636c0.645,-2.051 -0.887,-4.139 -3.037,-4.138l-23.125,0.004c-2.474,0 -4.644,1.653 -5.302,4.037l-14.351,51.95c-0.376,1.364 -2.301,1.391 -2.716,0.039l-15.952,-52.017c-0.73,-2.378 -2.926,-4.002 -5.413,-4.001l-11.841,0.002c-2.415,0 -4.519,1.651 -5.091,3.997l-12.779,52.282c-0.258,1.052 -1.749,1.06 -2.017,0.012l-13.372,-52.167c-0.621,-2.423 -2.805,-4.118 -5.307,-4.118l-25.847,0.005c-3.021,0.001 -5.182,2.921 -4.302,5.81l25.545,83.766c0.905,2.966 3.643,4.995 6.746,4.994l30.495,-0.005c1.793,-0.001 3.331,-1.279 3.659,-3.042l7.127,-38.294c0.217,-1.169 1.895,-1.15 2.088,0.022l6.27,38.213c0.294,1.786 1.838,3.097 3.648,3.097l31.719,-0.006c2.801,0 5.276,-1.818 6.117,-4.487l11.049,-35.129l15.989,-50.826Z" style="fill:#56bc6e;fill-rule:nonzero;"/><path d="M461.63,184.797l-10.842,0c-0.657,0 -1.227,-0.451 -1.379,-1.09l-5.941,-24.995l-0.151,0l-5.868,24.991c-0.15,0.641 -0.722,1.094 -1.38,1.094l-10.838,0c-0.62,0 -1.169,-0.403 -1.353,-0.995l-11.364,-36.405c-0.285,-0.913 0.397,-1.84 1.353,-1.84l9.98,0c0.646,0 1.21,0.436 1.372,1.062l6.303,24.342l0.151,0l5.35,-24.292c0.143,-0.649 0.719,-1.112 1.384,-1.112l9.977,0c0.663,0 1.236,0.458 1.383,1.103l5.495,24.225l0.152,0l6.155,-24.26c0.16,-0.628 0.726,-1.068 1.374,-1.068l10.05,0c0.956,0 1.638,0.927 1.353,1.84l-11.363,36.405c-0.185,0.592 -0.733,0.995 -1.353,0.995Z" style="fill:#bda783;fill-rule:nonzero;"/><path d="M495.715,176.102c5.973,0 7.863,-5.897 7.863,-10.887c0,-4.99 -1.89,-10.963 -7.863,-10.963c-5.973,0 -7.788,5.973 -7.788,10.963c0,4.99 1.815,10.887 7.788,10.887Zm0,-31.679c12.173,0 20.717,8.997 20.717,20.792c0,11.795 -8.544,20.716 -20.717,20.716c-12.173,0 -20.641,-8.921 -20.641,-20.716c0,-11.795 8.468,-20.792 20.641,-20.792Z" style="fill:#bda783;fill-rule:nonzero;"/><path d="M523.516,130.814l10.019,0c0.783,0 1.417,0.634 1.417,1.417l0,18.694l0.151,0c1.966,-4.007 7.258,-6.502 11.946,-6.502c13.08,0 14.139,9.526 14.139,15.197l0,23.76c0,0.782 -0.635,1.417 -1.417,1.417l-10.019,0c-0.782,0 -1.417,-0.635 -1.417,-1.417l0,-17.56c0,-5.369 0.605,-10.812 -6.427,-10.812c-4.839,0 -6.956,4.083 -6.956,8.393l0,19.979c0,0.782 -0.634,1.417 -1.417,1.417l-10.019,0c-0.782,0 -1.417,-0.635 -1.417,-1.417l0,-51.149c0,-0.783 0.635,-1.417 1.417,-1.417Z" style="fill:#bda783;fill-rule:nonzero;"/><path d="M570.449,130.814l10.019,0c0.782,0 1.417,0.634 1.417,1.417l0,51.149c0,0.782 -0.635,1.417 -1.417,1.417l-10.019,0c-0.782,0 -1.417,-0.635 -1.417,-1.417l0,-51.149c0,-0.783 0.635,-1.417 1.417,-1.417Z" style="fill:#bda783;fill-rule:nonzero;"/><path d="M608.027,154.252c-5.67,0 -7.485,4.989 -7.485,9.828c0,4.613 2.117,9.225 7.409,9.225c5.445,0 7.788,-4.234 7.788,-9.149c0,-4.99 -1.965,-9.904 -7.712,-9.904Zm19.885,25.781c0,6.427 -1.21,18.525 -19.582,18.525c-8.623,0 -16.776,-1.815 -18.95,-10.822c-0.213,-0.882 0.479,-1.729 1.386,-1.729l10.024,0c0.634,0 1.167,0.428 1.362,1.03c0.371,1.143 0.995,1.897 1.944,2.372c1.134,0.605 2.722,0.831 4.687,0.831c6.124,0 6.73,-4.309 6.73,-9.148l0,-3.704l-0.152,0c-2.343,3.629 -6.275,5.746 -10.433,5.746c-11.871,0 -17.239,-8.469 -17.239,-19.507c0,-10.433 6.125,-19.204 17.239,-19.204c4.687,0 8.241,2.041 10.509,6.048l0.151,0l0,-3.497c0,-0.782 0.635,-1.417 1.417,-1.417l9.49,0c0.782,0 1.417,0.635 1.417,1.417l0,33.059Z" style="fill:#bda783;fill-rule:nonzero;"/><path d="M660.539,161.132c0.917,0 1.597,-0.859 1.385,-1.752c-0.849,-3.559 -3.666,-6.263 -7.386,-6.263c-3.912,0 -6.7,2.417 -7.878,6.138c-0.293,0.926 0.375,1.877 1.346,1.877l12.533,0Zm-12.748,7.183c-0.86,0 -1.547,0.765 -1.407,1.614c0.733,4.455 3.73,7.308 8.607,7.308c2.846,0 5.628,-1.211 7.001,-3.632c0.243,-0.429 0.712,-0.678 1.204,-0.678l9.209,0c1.01,0 1.677,1.02 1.312,1.961c-2.979,7.681 -10.767,11.043 -18.877,11.043c-12.777,0 -21.473,-7.712 -21.473,-20.867c0,-12.022 9.603,-20.641 21.171,-20.641c13.572,0 20.595,9.859 20.525,22.51c-0.004,0.768 -0.649,1.382 -1.417,1.382l-25.855,0Z" style="fill:#bda783;fill-rule:nonzero;"/><path d="M681.847,145.557l9.641,0c0.783,0 1.417,0.635 1.417,1.417l0,3.951l0.152,0c2.344,-4.007 7.636,-6.502 12.323,-6.502c13.08,0 14.139,9.526 14.139,15.197l0,23.76c0,0.782 -0.635,1.417 -1.417,1.417l-10.02,0c-0.782,0 -1.417,-0.635 -1.417,-1.417l0,-17.56c0,-5.369 0.606,-10.812 -6.426,-10.812c-4.838,0 -6.956,4.083 -6.956,8.393l0,19.979c0,0.782 -0.634,1.417 -1.417,1.417l-10.019,0c-0.782,0 -1.417,-0.635 -1.417,-1.417l0,-36.406c0,-0.782 0.635,-1.417 1.417,-1.417Z" style="fill:#bda783;fill-rule:nonzero;"/><path d="M735.944,171.868c0.702,0 1.263,0.521 1.4,1.21c0.269,1.361 0.997,2.407 2.003,3.175c1.209,0.907 2.948,1.361 4.763,1.361c2.495,0 6.048,-1.058 6.048,-4.158c0,-3.024 -4.006,-3.63 -6.275,-4.158c-8.09,-2.042 -18.222,-2.268 -18.222,-12.853c0,-9.452 10.207,-12.022 17.919,-12.022c8.149,0 16.635,2.231 17.921,11.098c0.123,0.846 -0.555,1.604 -1.41,1.604l-9.036,0c-0.654,0 -1.246,-0.445 -1.375,-1.088c-0.213,-1.058 -0.757,-1.797 -1.564,-2.314c-1.057,-0.681 -2.494,-0.984 -4.082,-0.984c-2.117,0 -5.519,0.227 -5.519,2.95c0,3.704 8.619,4.384 14.516,5.67c7.939,1.588 9.981,7.334 9.981,10.585c0,10.509 -9.981,13.987 -18.826,13.987c-8.834,0 -17.872,-2.797 -19.08,-12.473c-0.106,-0.843 0.564,-1.59 1.413,-1.59l9.425,0Z" style="fill:#bda783;fill-rule:nonzero;"/><path d="M770.278,145.557l10.018,0c0.782,0 1.417,0.635 1.417,1.417l0,36.406c0,0.782 -0.635,1.417 -1.417,1.417l-10.018,0c-0.783,0 -1.417,-0.635 -1.417,-1.417l0,-36.406c0,-0.782 0.634,-1.417 1.417,-1.417Zm10.018,-4.914l-10.018,0c-0.783,0 -1.417,-0.635 -1.417,-1.417l0,-6.995c0,-0.783 0.634,-1.417 1.417,-1.417l10.018,0c0.782,0 1.417,0.634 1.417,1.417l0,6.995c0,0.782 -0.635,1.417 -1.417,1.417Z" style="fill:#bda783;fill-rule:nonzero;"/><path d="M790.931,145.557l9.641,0c0.783,0 1.417,0.635 1.417,1.417l0,3.951l0.152,0c2.344,-4.007 7.636,-6.502 12.323,-6.502c13.08,0 14.139,9.526 14.139,15.197l0,23.76c0,0.782 -0.635,1.417 -1.417,1.417l-10.02,0c-0.782,0 -1.417,-0.635 -1.417,-1.417l0,-17.56c0,-5.369 0.606,-10.812 -6.426,-10.812c-4.838,0 -6.956,4.083 -6.956,8.393l0,19.979c0,0.782 -0.634,1.417 -1.417,1.417l-10.019,0c-0.782,0 -1.417,-0.635 -1.417,-1.417l0,-36.406c0,-0.782 0.635,-1.417 1.417,-1.417Z" style="fill:#bda783;fill-rule:nonzero;"/><path d="M854.404,154.252c-5.67,0 -7.485,4.989 -7.485,9.828c0,4.613 2.117,9.225 7.409,9.225c5.445,0 7.788,-4.234 7.788,-9.149c0,-4.99 -1.965,-9.904 -7.712,-9.904Zm19.885,25.781c0,6.427 -1.21,18.525 -19.582,18.525c-8.623,0 -16.776,-1.815 -18.95,-10.822c-0.213,-0.882 0.479,-1.729 1.386,-1.729l10.024,0c0.634,0 1.167,0.428 1.362,1.03c0.371,1.143 0.995,1.897 1.944,2.372c1.134,0.605 2.722,0.831 4.687,0.831c6.124,0 6.73,-4.309 6.73,-9.148l0,-3.704l-0.152,0c-2.343,3.629 -6.275,5.746 -10.433,5.746c-11.871,0 -17.239,-8.469 -17.239,-19.507c0,-10.433 6.125,-19.204 17.239,-19.204c4.687,0 8.241,2.041 10.509,6.048l0.151,0l0,-3.497c0,-0.782 0.635,-1.417 1.417,-1.417l9.49,0c0.782,0 1.417,0.635 1.417,1.417l0,33.059Z" style="fill:#bda783;fill-rule:nonzero;"/><path d="M906.915,161.132c0.917,0 1.597,-0.859 1.385,-1.752c-0.849,-3.559 -3.666,-6.263 -7.386,-6.263c-3.912,0 -6.7,2.417 -7.878,6.138c-0.293,0.926 0.375,1.877 1.346,1.877l12.533,0Zm-12.748,7.183c-0.86,0 -1.547,0.765 -1.407,1.614c0.733,4.455 3.73,7.308 8.607,7.308c2.846,0 5.628,-1.211 7.001,-3.632c0.244,-0.429 0.712,-0.678 1.204,-0.678l9.209,0c1.01,0 1.677,1.02 1.312,1.961c-2.979,7.681 -10.767,11.043 -18.877,11.043c-12.777,0 -21.472,-7.712 -21.472,-20.867c0,-12.022 9.602,-20.641 21.17,-20.641c13.573,0 20.595,9.859 20.525,22.51c-0.004,0.768 -0.649,1.382 -1.417,1.382l-25.855,0Z" style="fill:#bda783;fill-rule:nonzero;"/><path d="M928.427,145.557l9.641,0c0.782,0 1.417,0.635 1.417,1.417l0,5.463l0.151,0c1.891,-4.99 6.275,-7.636 11.795,-7.636c0.577,0 1.181,0.026 1.78,0.094c0.711,0.08 1.244,0.695 1.244,1.412l0,8.715c0,0.887 -0.809,1.572 -1.678,1.392c-1.053,-0.217 -2.096,-0.347 -3.237,-0.347c-6.35,0 -9.678,4.384 -9.678,9.299l0,18.014c0,0.782 -0.634,1.417 -1.417,1.417l-10.018,0c-0.782,0 -1.417,-0.635 -1.417,-1.417l0,-36.406c0,-0.782 0.635,-1.417 1.417,-1.417Z" style="fill:#bda783;fill-rule:nonzero;"/><path d="M954.297,170.735l11.23,0c0.782,0 1.417,0.634 1.417,1.417l0,11.228c0,0.782 -0.635,1.417 -1.417,1.417l-11.23,0c-0.782,0 -1.417,-0.635 -1.417,-1.417l0,-11.228c0,-0.783 0.635,-1.417 1.417,-1.417Z" style="fill:#bda783;fill-rule:nonzero;"/><path d="M1000.92,159.922c-0.68,0 -1.23,-0.492 -1.388,-1.155c-0.642,-2.701 -3.267,-4.515 -6.128,-4.515c-7.182,0 -8.317,6.124 -8.317,11.568c0,5.065 2.192,10.282 7.637,10.282c4.055,0 6.299,-2.125 7.128,-5.637c0.148,-0.638 0.718,-1.092 1.368,-1.092l9.66,0c0.89,0 1.57,0.811 1.4,1.682c-1.78,9.471 -9.62,14.876 -19.481,14.876c-11.795,0 -20.564,-8.09 -20.564,-20.111c0,-12.476 7.938,-21.397 20.564,-21.397c9.211,0 17.481,4.589 19.131,13.831c0.16,0.867 -0.52,1.668 -1.4,1.668l-9.61,0Z" style="fill:#bda783;fill-rule:nonzero;"/><path d="M1019.34,130.814l10.02,0c0.78,0 1.41,0.634 1.41,1.417l0,18.694l0.15,0c1.97,-4.007 7.26,-6.502 11.95,-6.502c13.08,0 14.14,9.526 14.14,15.197l0,23.76c0,0.782 -0.64,1.417 -1.42,1.417l-10.021,0c-0.779,0 -1.419,-0.635 -1.419,-1.417l0,-17.56c0,-5.369 0.61,-10.812 -6.42,-10.812c-4.84,0 -6.96,4.083 -6.96,8.393l0,19.979c0,0.782 -0.63,1.417 -1.41,1.417l-10.02,0c-0.79,0 -1.42,-0.635 -1.42,-1.417l0,-51.149c0,-0.783 0.63,-1.417 1.42,-1.417Z" style="fill:#bda783;fill-rule:nonzero;"/><path d="M416.401,212.232l4.763,0l0,21.699l0.151,0c1.739,-4.688 6.956,-7.863 12.475,-7.863c10.963,0 14.29,5.746 14.29,15.045l0,25.102l-4.763,0l0,-24.346c0,-6.728 -2.193,-11.795 -9.905,-11.795c-7.561,0 -12.097,5.747 -12.248,13.383l0,22.758l-4.763,0l0,-53.983Z" style="fill:#bda783;fill-rule:nonzero;"/><path d="M458.389,246.708c0,8.318 4.536,16.634 13.685,16.634c9.149,0 13.685,-8.316 13.685,-16.634c0,-8.316 -4.536,-16.634 -13.685,-16.634c-9.149,0 -13.685,8.318 -13.685,16.634Zm32.133,0c0,11.191 -6.502,20.641 -18.448,20.641c-11.946,0 -18.448,-9.45 -18.448,-20.641c0,-11.189 6.502,-20.64 18.448,-20.64c11.946,0 18.448,9.451 18.448,20.64Z" style="fill:#bda783;fill-rule:nonzero;"/><rect x="496.356" y="212.232" width="4.764" height="53.983" style="fill:#bda783;fill-rule:nonzero;"/><path d="M510.895,262.208l26.84,0l0,4.007l-32.586,0l0,-3.856l25.479,-31.15l-23.741,0l0,-4.008l29.79,0l0,3.403l-25.782,31.604Z" style="fill:#bda783;fill-rule:nonzero;"/><path d="M560.377,230.074c-10.132,0 -13.685,8.544 -13.685,16.634c0,8.09 3.553,16.634 13.685,16.634c9.072,0 12.777,-8.544 12.777,-16.634c0,-8.09 -3.705,-16.634 -12.777,-16.634Zm-18.448,-17.842l4.763,0l0,22.38l0.151,0c2.042,-5.596 7.713,-8.544 13.534,-8.544c11.87,0 17.541,9.602 17.541,20.64c0,11.039 -5.671,20.641 -17.541,20.641c-6.275,0 -11.719,-3.251 -13.912,-8.543l-0.151,0l0,7.409l-4.385,0l0,-53.983Z" style="fill:#bda783;fill-rule:nonzero;"/><path d="M608.604,244.894l-0.152,0c-0.605,1.134 -2.721,1.511 -4.008,1.739c-8.089,1.437 -18.145,1.36 -18.145,8.997c0,4.764 4.234,7.712 8.695,7.712c7.258,0 13.685,-4.612 13.61,-12.248l0,-6.2Zm-25.405,-5.746c0.453,-9.149 6.88,-13.08 15.802,-13.08c6.88,0 14.365,2.117 14.365,12.55l0,20.718c0,1.815 0.908,2.872 2.798,2.872c0.529,0 1.134,-0.151 1.512,-0.303l0,4.007c-1.059,0.228 -1.815,0.303 -3.1,0.303c-4.839,0 -5.594,-2.722 -5.594,-6.805l-0.152,0c-3.327,5.066 -6.729,7.939 -14.215,7.939c-7.182,0 -13.08,-3.554 -13.08,-11.416c0,-10.964 10.661,-11.342 20.944,-12.551c3.931,-0.454 6.125,-0.983 6.125,-5.293c0,-6.427 -4.613,-8.015 -10.207,-8.015c-5.898,0 -10.284,2.723 -10.435,9.074l-4.763,0Z" style="fill:#bda783;fill-rule:nonzero;"/><path d="M652.854,266.215l-4.386,0l0,-7.031l-0.151,0c-2.496,5.217 -7.636,8.165 -13.458,8.165c-9.83,0 -13.685,-5.745 -13.685,-14.819l0,-25.329l4.763,0l0,25.405c0.227,7.032 2.874,10.736 10.434,10.736c8.165,0 11.719,-7.712 11.719,-15.65l0,-20.491l4.764,0l0,39.014Z" style="fill:#bda783;fill-rule:nonzero;"/><rect x="684.755" y="211.62" width="4.007" height="54.955" style="fill:#bda783;fill-rule:nonzero;"/><path d="M744.028,238.618c-0.228,-5.897 -4.764,-8.544 -10.208,-8.544c-4.234,0 -9.224,1.664 -9.224,6.73c0,4.234 4.839,5.746 8.09,6.578l6.351,1.437c5.444,0.831 11.115,4.006 11.115,10.811c0,8.468 -8.393,11.719 -15.651,11.719c-9.073,0 -15.273,-4.234 -16.029,-13.76l4.764,0c0.377,6.426 5.14,9.753 11.492,9.753c4.461,0 10.66,-1.966 10.66,-7.409c0,-4.537 -4.234,-6.049 -8.543,-7.108l-6.125,-1.361c-6.199,-1.663 -10.887,-3.78 -10.887,-10.434c0,-7.938 7.787,-10.962 14.668,-10.962c7.787,0 13.987,4.083 14.289,12.55l-4.762,0Z" style="fill:#bda783;fill-rule:nonzero;"/><path d="M783.052,239.45c-1.285,-5.822 -4.839,-9.376 -11.039,-9.376c-9.149,0 -13.685,8.318 -13.685,16.634c0,8.318 4.536,16.634 13.685,16.634c5.897,0 10.736,-4.612 11.342,-11.114l4.762,0c-1.285,9.376 -7.409,15.121 -16.104,15.121c-11.945,0 -18.448,-9.45 -18.448,-20.641c0,-11.189 6.503,-20.64 18.448,-20.64c8.317,0 14.744,4.461 15.802,13.382l-4.763,0Z" style="fill:#bda783;fill-rule:nonzero;"/><path d="M793.46,212.232l4.763,0l0,21.699l0.151,0c1.739,-4.688 6.956,-7.863 12.476,-7.863c10.963,0 14.29,5.746 14.29,15.045l0,25.102l-4.764,0l0,-24.346c0,-6.728 -2.192,-11.795 -9.904,-11.795c-7.561,0 -12.098,5.747 -12.249,13.383l0,22.758l-4.763,0l0,-53.983Z" style="fill:#bda783;fill-rule:nonzero;"/><path d="M832.704,227.201l4.386,0l0,9.149l0.151,0c2.419,-6.276 7.712,-9.98 14.744,-9.678l0,4.764c-8.62,-0.454 -14.517,5.897 -14.517,13.987l0,20.792l-4.764,0l0,-39.014Z" style="fill:#bda783;fill-rule:nonzero;"/><path d="M882.362,243.987c-0.227,-7.183 -4.688,-13.913 -12.4,-13.913c-7.788,0 -12.098,6.805 -12.853,13.913l25.253,0Zm-25.253,4.006c0.075,6.956 3.705,15.349 12.853,15.349c6.955,0 10.736,-4.083 12.248,-9.98l4.764,0c-2.042,8.846 -7.184,13.987 -17.012,13.987c-12.4,0 -17.617,-9.527 -17.617,-20.641c0,-10.282 5.217,-20.64 17.617,-20.64c12.551,0 17.541,10.962 17.162,21.925l-30.015,0Z" style="fill:#bda783;fill-rule:nonzero;"/><path d="M892.596,227.201l4.763,0l0,39.014l-4.763,0l0,-39.014Zm0,-14.969l4.763,0l0,7.635l-4.763,0l0,-7.635Z" style="fill:#bda783;fill-rule:nonzero;"/><path d="M904.873,227.201l4.763,0l0,6.73l0.151,0c1.74,-4.688 6.956,-7.863 12.476,-7.863c10.963,0 14.29,5.746 14.29,15.045l0,25.102l-4.764,0l0,-24.346c0,-6.728 -2.192,-11.795 -9.904,-11.795c-7.561,0 -12.098,5.747 -12.249,13.383l0,22.758l-4.763,0l0,-39.014Z" style="fill:#bda783;fill-rule:nonzero;"/><path d="M972.251,243.987c-0.226,-7.183 -4.687,-13.913 -12.399,-13.913c-7.788,0 -12.098,6.805 -12.854,13.913l25.253,0Zm-25.253,4.006c0.075,6.956 3.705,15.349 12.854,15.349c6.955,0 10.736,-4.083 12.248,-9.98l4.763,0c-2.042,8.846 -7.183,13.987 -17.011,13.987c-12.401,0 -17.617,-9.527 -17.617,-20.641c0,-10.282 5.216,-20.64 17.617,-20.64c12.551,0 17.541,10.962 17.162,21.925l-30.016,0Z" style="fill:#bda783;fill-rule:nonzero;"/><path d="M982.492,227.201l4.386,0l0,9.149l0.151,0c2.419,-6.276 7.712,-9.98 14.741,-9.678l0,4.764c-8.616,-0.454 -14.514,5.897 -14.514,13.987l0,20.792l-4.764,0l0,-39.014Z" style="fill:#bda783;fill-rule:nonzero;"/><path d="M1032.15,243.987c-0.23,-7.183 -4.691,-13.913 -12.4,-13.913c-7.79,0 -12.1,6.805 -12.85,13.913l25.25,0Zm-25.25,4.006c0.07,6.956 3.7,15.349 12.85,15.349c6.959,0 10.74,-4.083 12.25,-9.98l4.76,0c-2.04,8.846 -7.181,13.987 -17.01,13.987c-12.4,0 -17.62,-9.527 -17.62,-20.641c0,-10.282 5.22,-20.64 17.62,-20.64c12.55,0 17.54,10.962 17.16,21.925l-30.01,0Z" style="fill:#bda783;fill-rule:nonzero;"/><path d="M1042.38,227.201l4.77,0l0,39.014l-4.77,0l0,-39.014Zm0,-14.969l4.77,0l0,7.635l-4.77,0l0,-7.635Z" style="fill:#bda783;fill-rule:nonzero;"/></g></svg>