<?xml version="1.0" encoding="UTF-8"?>
<svg width="120px" height="98px" viewBox="0 0 120 98" version="1.1" xmlns="http://www.w3.org/2000/svg" xmlns:xlink="http://www.w3.org/1999/xlink">
    <!-- Generator: Sketch 57.1 (83088) - https://sketch.com -->
    <title>Group 19</title>
    <desc>Created with Sketch.</desc>
    <g id="Page-1" stroke="none" stroke-width="1" fill="none" fill-rule="evenodd">
        <g id="Wohlgensinger---Landing-Page" transform="translate(-253.000000, -4064.000000)">
            <g id="Group-19" transform="translate(253.000000, 4064.000000)">
                <path d="M52.551658,12.046284 C54.6934434,18.1215476 48.5168747,23.2834772 47.5759095,24.0254125 C47.4984372,24.0865074 47.4071306,24.1207396 47.3098291,24.1250187 C46.1260714,24.1789819 38.1731743,24.308779 36.0311584,18.2335154 C32.915436,9.3963793 37.7558386,1.81513686 38.793183,0.337922577 C38.9066246,0.176508272 39.1016887,0.103289411 39.2893745,0.152260467 C41.0046012,0.598705336 49.4361662,3.20914788 52.551658,12.046284 Z" id="Fill-1" fill="#E6E6E6"></path>
                <path d="M52.5351895,12.0181541 C49.3916809,3.39550113 41.0289872,0.687920912 38.9470968,0.137254902 C41.5999476,1.96605699 44.3276039,4.74774241 45.8425968,8.90335263 C48.0626266,14.9928466 41.6604135,20.1668673 40.6850726,20.9105404 C40.6047701,20.9717785 40.5101278,21.0060908 40.4092717,21.0103799 C39.9709538,21.0296806 38.6349686,21.0570828 37,20.8087947 C40.22883,24.2638605 46.0830263,24.169978 47.1018644,24.1251813 C47.2027206,24.120654 47.2976018,24.0863416 47.3776653,24.0253418 C48.3532452,23.2816687 54.7554583,18.107648 52.5351895,12.0181541 Z" id="Fill-2" fill="#E0E0E0"></path>
                <path d="M51.8811563,34.7521041 L42.3112897,7.30876645 C41.9892904,6.38578105 41.0100937,5.90922549 40.1244248,6.2446409 C39.2383008,6.58005631 38.7811299,7.60029795 39.1031293,8.52352056 L48.6727683,35.9668583 C49.4435187,38.1767097 52.652817,36.9652765 51.8811563,34.7521041 Z" id="Fill-3" fill="#D0D0D0"></path>
                <path d="M81,79.6361975 C81,89.3015147 74.2454211,97.1372549 65.9120594,97.1372549 L15,97.1372549 L15,62.1372549 L65.9118254,62.1372549 C74.2454211,62.1372549 81,69.9732301 81,79.6361975 Z" id="Fill-4" fill="#9D9D9D"></path>
                <path d="M15,62.1372549 C23.2787978,62.1372549 30,69.9787927 30,79.6372549 C30,89.2957641 23.2787978,97.1372549 15,97.1372549 C6.72127194,97.1372549 0,89.2957641 0,79.6372549 C0,69.9787927 6.72127194,62.1372549 15,62.1372549 Z" id="Fill-5" fill="#E9E9E9"></path>
                <path d="M100,48.6361975 C100,58.3015147 93.2453971,66.1372549 84.9120059,66.1372549 L34,66.1372549 L34,31.1372549 L84.9120059,31.1372549 C93.2453971,31.1372549 100,38.9732301 100,48.6361975 Z" id="Fill-6" fill="#CFCFCF"></path>
                <path d="M120,79.6361975 C120,89.3015147 113.245397,97.1372549 104.912006,97.1372549 L54,97.1372549 L54,62.1372549 L104.912006,62.1372549 C113.245397,62.1372549 120,69.9732301 120,79.6361975 Z" id="Fill-7" fill="#B4B4B4"></path>
                <path d="M71,44.6372549 C71,43.8089236 70.2032585,43.1372549 69.2204998,43.1372549 L48.7795002,43.1372549 C47.7967415,43.1372549 47,43.8089236 47,44.6372549 C47,45.4655862 47.7967415,46.1372549 48.7795002,46.1372549 L69.2204998,46.1372549 C70.2032585,46.1372549 71,45.4657863 71,44.6372549 Z" id="Fill-8" fill="#878787"></path>
                <path d="M99,54.1372549 C98.6947315,55.1892757 98.273831,56.1952781 97.753487,57.1372549 L68.73448,57.1372549 C67.777047,57.1372549 67,56.4671869 67,55.6372549 C67,54.8093237 67.777047,54.1372549 68.73448,54.1372549 L99,54.1372549 Z" id="Fill-9" fill="#878787"></path>
                <path d="M79.6951451,46.1372549 L86.3048549,46.1372549 C87.241027,46.1372549 88,45.4655862 88,44.6372549 C88,43.8089236 87.241027,43.1372549 86.3048549,43.1372549 L79.6951451,43.1372549 C78.758973,43.1372549 78,43.8089236 78,44.6372549 C78,45.4657863 78.758973,46.1372549 79.6951451,46.1372549 Z" id="Fill-10" fill="#878787"></path>
                <path d="M105,73.6372549 C105,72.8089236 104.206925,72.1372549 103.22869,72.1372549 L67.7713102,72.1372549 C66.7930746,72.1372549 66,72.8089236 66,73.6372549 C66,74.4655862 66.7930746,75.1372549 67.7713102,75.1372549 L103.22869,75.1372549 C104.207162,75.1372549 105,74.4657863 105,73.6372549 Z" id="Fill-11" fill="#888888"></path>
                <path d="M119,85.1372549 C118.634931,86.1952781 118.154452,87.2012805 117.567986,88.1372549 L94.7664644,88.1372549 C93.791376,88.1372549 93,87.4651861 93,86.6372549 C93,85.8073229 93.791376,85.1372549 94.7664644,85.1372549 L119,85.1372549 Z" id="Fill-12" fill="#888888"></path>
                <path d="M82.2752012,85.1372549 L76.7247988,85.1372549 C75.7722499,85.1372549 75,85.8089236 75,86.6372549 C75,87.4655862 75.7722499,88.1372549 76.7247988,88.1372549 L82.2752012,88.1372549 C83.2277501,88.1372549 84,87.4655862 84,86.6372549 C84,85.8089236 83.2277501,85.1372549 82.2752012,85.1372549 Z" id="Fill-13" fill="#888888"></path>
                <path d="M34,31.1372549 C42.2787978,31.1372549 49,38.9787927 49,48.6372549 C49,58.2957171 42.2787978,66.1372549 34,66.1372549 C25.7212022,66.1372549 19,58.2957171 19,48.6372549 C19,38.9787927 25.7212022,31.1372549 34,31.1372549 Z" id="Fill-14" fill="#E9E9E9"></path>
                <path d="M53,62.1372549 C61.2787978,62.1372549 68,69.9787927 68,79.6372549 C68,89.2957641 61.2787978,97.1372549 53,97.1372549 C44.7212022,97.1372549 38,89.2957641 38,79.6372549 C38,69.9787927 44.7212022,62.1372549 53,62.1372549 Z" id="Fill-15" fill="#E9E9E9"></path>
                <path d="M14.5,68.1372549 C8.71009433,68.1372549 4,73.2962436 4,79.6373728 C4,80.6132575 4.8151993,81.4045727 5.82072505,81.4045727 C6.82625081,81.4045727 7.64145011,80.6132575 7.64145011,79.6373728 C7.64145011,75.2451843 10.7182327,71.6716548 14.5,71.6716548 C18.2817673,71.6716548 21.3585499,75.2451843 21.3585499,79.6373728 C21.3585499,84.0295612 18.2817673,87.602855 14.5,87.602855 C13.4944742,87.602855 12.6792749,88.3941702 12.6792749,89.370055 C12.6792749,90.3459397 13.4944742,91.1372549 14.5,91.1372549 C20.2896629,91.1372549 25,85.978502 25,79.6373728 C25,73.2962436 20.2896629,68.1372549 14.5,68.1372549 Z" id="Fill-16" fill="#C4C4C4"></path>
                <path d="M45,48.6372549 C45,42.2961553 40.2898009,37.1372549 34.5001208,37.1372549 C28.7104407,37.1372549 24,42.2961553 24,48.6372549 C24,54.9783545 28.7101991,60.1372549 34.5001208,60.1372549 C35.5006154,60.1372549 36.3117358,59.349982 36.3117358,58.3790825 C36.3117358,57.408183 35.5006154,56.6209101 34.5001208,56.6209101 C30.7082897,56.6209101 27.6232301,53.0393696 27.6232301,48.6372549 C27.6232301,44.2351402 30.7080482,40.6535997 34.5001208,40.6535997 C38.2921934,40.6535997 41.3767699,44.2351402 41.3767699,48.6372549 C41.3767699,49.6081544 42.1878904,50.3954273 43.188385,50.3954273 C44.1888796,50.3954273 45,49.6081544 45,48.6372549 Z" id="Fill-17" fill="#C4C4C4"></path>
                <path d="M53.5,68.1372549 C52.5349702,68.1372549 51.7526017,68.9289613 51.7526017,69.9053284 C51.7526017,70.8816955 52.5349702,71.6734019 53.5,71.6734019 C57.3626822,71.6734019 60.5052034,75.4703852 60.5052034,80.1373728 C60.5052034,84.8043605 57.3626822,88.6011079 53.5,88.6011079 C49.6373178,88.6011079 46.4947966,84.8041247 46.4947966,80.1373728 C46.4947966,79.1610057 45.7124282,78.3692993 44.7473983,78.3692993 C43.7823685,78.3692993 43,79.1610057 43,80.1373728 C43,86.7542647 47.7102869,92.1372549 53.5,92.1372549 C59.2897131,92.1372549 64,86.7540288 64,80.1373728 C64,73.5207168 59.2897131,68.1372549 53.5,68.1372549 Z" id="Fill-18" fill="#C4C4C4"></path>
            </g>
        </g>
    </g>
</svg>